HIERARCHY
ROOT Hips
{
	OFFSET 0.000000 0.000000 0.000000 
	CHANNELS 6 Xposition Yposition Zposition Yrotation Zrotation Xrotation 
	JOINT Lumbar
	{
		OFFSET 0.000000 0.000000 0.000000 
		CHANNELS 3 Zrotation Xrotation Yrotation
		JOINT Neck
		{
			OFFSET 0.000000 0.445665 0.000000 
			CHANNELS 3 Zrotation Xrotation Yrotation
			End Site
			{
				OFFSET 0.000000 0.227535 0.000000 
			}
		}
		JOINT RightShoulder
		{
			OFFSET 0.019635 0.377685 0.194865 
			CHANNELS 3 Zrotation Xrotation Yrotation
			JOINT RightElbow
			{
				OFFSET 0.000000 -0.243375 0.000000 
				CHANNELS 2 Zrotation Yrotation
				JOINT RightWrist
				{
					OFFSET 0.000000 -0.264825 0.000000 
					CHANNELS 2 Zrotation Xrotation
					End Site
					{
						OFFSET 0.006600 -0.176220 0.000990 
					}
				}
			}
		}
		JOINT LeftShoulder
		{
			OFFSET 0.019635 0.377685 -0.194865 
			CHANNELS 3 Zrotation Xrotation Yrotation
			JOINT LeftElbow
			{
				OFFSET 0.000000 -0.243375 0.000000 
				CHANNELS 2 Zrotation Yrotation
				JOINT LeftWrist
				{
					OFFSET 0.000000 -0.264825 0.000000 
					CHANNELS 2 Zrotation Xrotation
					End Site
					{
						OFFSET 0.006600 -0.176220 -0.000990 
					}
				}
			}
		}
	}
	JOINT RightHip
	{
		OFFSET 0.052140 -0.069960 0.075570 
		CHANNELS 3 Zrotation Xrotation Yrotation
		JOINT RightKnee
		{
			OFFSET 0.000000 -0.402270 0.000000 
			CHANNELS 1 Zrotation
			JOINT RightAnkle
			{
				OFFSET 0.000000 -0.404085 0.000000 
				CHANNELS 3 Zrotation Xrotation Yrotation
				End Site
				{
					OFFSET 0.204105 -0.089430 0.008415 
				}
			}
		}
	}
	JOINT LeftHip
	{
		OFFSET 0.052140 -0.069960 -0.075570 
		CHANNELS 3 Zrotation Xrotation Yrotation
		JOINT LeftKnee
		{
			OFFSET 0.000000 -0.402270 0.000000 
			CHANNELS 1 Zrotation
			JOINT LeftAnkle
			{
				OFFSET 0.000000 -0.404085 0.000000 
				CHANNELS 3 Zrotation Xrotation Yrotation
				End Site
				{
					OFFSET 0.204105 -0.089430 -0.008415 
				}
			}
		}
	}
}
MOTION
Frames: 33
Frame Time: 0.02
-0.00136 4e-05 -0.0002 -173.089 -30.28132 1.78004 44.60511 -1.32111 -8.02827 -12.55421 3.2004 -1.16799 -19.68221 -5.43886 -4.29087 27.02552 95.02259 7.79522 1.68304 -20.17272 5.16274 3.99591 29.81958 -147.95475 30.06501 -8.56363 29.87865 -4.27951 -14.02998 -20.35404 -6.45087 -3.28591 -3.81122 34.44805 5.38602 8.29198 -24.46666 -6.60079 1.78297 3.11249
-0.00085 5e-05 -0.00051 -173.12322 -30.27752 1.78637 44.55808 -1.30238 -8.05212 -12.58189 3.19464 -1.16878 -19.63389 -5.4701 -4.22547 26.98459 95.00469 7.80119 1.68206 -20.16307 5.36473 3.2906 29.87634 -143.61381 28.65278 -7.89376 29.92551 -4.25122 -13.89554 -20.36271 -6.45556 -3.29222 -3.81606 34.48199 5.37978 8.23356 -24.47579 -6.60444 1.79071 3.11611
-0.00034 5e-05 -0.00081 -173.15737 -30.27378 1.7927 44.51114 -1.28368 -8.07588 -12.60936 3.1889 -1.16956 -19.58566 -5.50101 -4.16128 26.94372 94.99304 7.80889 1.6821 -20.15342 5.5661 2.58744 29.93291 -139.28646 27.24498 -7.22599 29.97235 -4.22301 -13.76148 -20.37136 -6.46024 -3.29852 -3.82087 34.51594 5.37355 8.17531 -24.4849 -6.60809 1.79845 3.11972
0.00016 6e-05 -0.00112 -173.1915 -30.27 1.79902 44.46424 -1.265 -8.09965 -12.63693 3.18315 -1.17035 -19.53748 -5.5321 -4.09633 26.90291 94.97666 7.81525 1.68136 -20.14379 5.76747 1.88429 29.98949 -134.95873 25.83704 -6.55816 30.01908 -4.19481 -13.62745 -20.38 -6.46492 -3.30481 -3.82569 34.5498 5.36732 8.11707 -24.49401 -6.61173 1.80617 3.12332
0.00067 6e-05 -0.00143 -173.2257 -30.26615 1.80534 44.41727 -1.2463 -8.12351 -12.66475 3.17738 -1.17113 -19.48923 -5.56367 -4.02957 26.86206 94.95042 7.81889 1.67902 -20.13419 5.96946 1.17903 30.04628 -130.6179 24.42482 -5.88829 30.0658 -4.16652 -13.49305 -20.38865 -6.46961 -3.31114 -3.83053 34.58362 5.36108 8.05868 -24.50313 -6.61538 1.8139 3.12693
0.00118 6e-05 -0.00174 -173.25975 -30.26265 1.8117 44.37042 -1.22761 -8.14708 -12.69147 3.17171 -1.17191 -19.44105 -5.5932 -3.97064 26.82115 94.9687 7.8349 1.68392 -20.12441 6.1695 0.48036 30.10235 -126.31942 23.02651 -5.22501 30.11286 -4.13847 -13.3597 -20.39729 -6.47426 -3.31737 -3.8353 34.61783 5.35487 8.0007 -24.51223 -6.61903 1.82163 3.13054
0.00169 7e-05 -0.00204 -173.29405 -30.25844 1.81797 44.32337 -1.20891 -8.17119 -12.7204 3.16585 -1.1727 -19.39277 -5.62666 -3.89664 26.7804 94.90083 7.82696 1.67482 -20.115 6.37327 -0.23089 30.1598 -121.93927 21.60135 -4.54903 30.15918 -4.10998 -13.22443 -20.40595 -6.479 -3.32377 -3.8402 34.65121 5.34861 7.94196 -24.52136 -6.62267 1.82935 3.13414
0.0022 7e-05 -0.00235 -173.32812 -30.25489 1.82432 44.27651 -1.19022 -8.19482 -12.74726 3.16015 -1.17348 -19.3446 -5.65677 -3.83543 26.73953 94.90609 7.83934 1.6776 -20.10527 6.57355 -0.93035 30.21602 -117.63661 20.20166 -3.88509 30.2062 -4.08189 -13.09084 -20.41459 -6.48365 -3.33003 -3.84499 34.68537 5.3424 7.88393 -24.53046 -6.62632 1.83708 3.13775
0.00271 7e-05 -0.00266 -173.36196 -30.25214 1.83078 44.22984 -1.17154 -8.2178 -12.7717 3.1547 -1.17427 -19.29649 -5.68166 -3.79439 26.69836 95.02693 7.88391 1.69916 -20.09506 6.76982 -1.61643 30.27059 -113.41826 18.82971 -3.23429 30.25404 -4.05432 -12.95958 -20.42319 -6.4882 -3.33609 -3.84963 34.72046 5.33623 7.82671 -24.53954 -6.63 1.84485 3.14138
0.0032 8e-05 -0.00297 -173.39726 -30.24476 1.83664 44.18194 -1.1528 -8.24434 -12.81037 3.14799 -1.17504 -19.24779 -5.73321 -3.65096 26.65847 94.56164 7.76539 1.62549 -20.08732 6.98996 -2.38263 30.33418 -108.68338 17.28792 -2.50314 30.29708 -4.02383 -12.81576 -20.43201 -6.49335 -3.34318 -3.85506 34.75011 5.32978 7.76465 -24.54878 -6.63354 1.85246 3.14491
0.00374 8e-05 -0.00327 -173.42938 -30.24719 1.84376 44.13672 -1.13418 -8.26349 -12.81884 3.14382 -1.17584 -19.2005 -5.73068 -3.71473 26.61617 95.28185 7.97663 1.74442 -20.07457 7.15922 -2.97775 30.37906 -105.05868 16.11107 -1.94459 30.35028 -3.99944 -12.69791 -20.44035 -6.49725 -3.34816 -3.85886 34.7913 5.32395 7.71292 -24.55766 -6.63737 1.86036 3.14864
0.0044 9e-05 -0.00354 -173.4534 -30.2765 1.85436 44.09823 -1.11585 -8.26113 -12.7449 3.14758 -1.17672 -19.15585 -5.56013 -4.42704 26.56499 99.71857 9.22254 2.46731 -20.0464 7.19214 -3.11721 30.36962 -104.33015 15.88704 -1.83704 30.43136 -3.99264 -12.65644 -20.4474 -6.49738 -3.3469 -3.85794 34.86416 5.3196 7.68877 -24.56575 -6.64191 1.86945 3.1531
0.0051 0.00011 -0.00381 -173.47403 -30.31568 1.86621 44.06252 -1.09765 -8.25157 -12.64049 3.1537 -1.17762 -19.11288 -5.33864 -5.33371 26.51193 105.26633 10.77734 3.37068 -20.01356 7.17368 -3.08341 30.34208 -104.73584 16.03568 -1.90571 30.52264 -3.99183 -12.6402 -20.45396 -6.49631 -3.34358 -3.85545 34.94862 5.31592 7.67511 -24.57346 -6.64675 1.87875 3.15772
0.00578 0.00012 -0.00407 -173.49587 -30.35039 1.87744 44.02596 -1.0794 -8.24608 -12.54976 3.15817 -1.17851 -19.06987 -5.1536 -6.09786 26.46109 109.99481 12.10372 4.14085 -19.98392 7.17619 -3.11854 30.32459 -104.7313 16.04908 -1.91018 30.60929 -3.9877 -12.60898 -20.4607 -6.496 -3.34147 -3.85386 35.02776 5.31207 7.65716 -24.58123 -6.6515 1.88767 3.16212
0.00648 0.00013 -0.00434 -173.51936 -30.38508 1.88886 43.98772 -1.06109 -8.23717 -12.45985 3.16517 -1.1794 -19.02364 -4.9134 -7.08668 26.40404 116.02596 13.79497 5.12311 -19.94953 7.18732 -3.19032 30.29879 -104.31938 15.93064 -1.85326 30.69596 -3.98604 -12.59228 -20.46758 -6.4948 -3.33821 -3.85147 35.10713 5.30764 7.63732 -24.58945 -6.65606 1.89777 3.16712
0.00715 0.00014 -0.00461 -173.53829 -30.42211 1.90023 43.95356 -1.04296 -8.23373 -12.36076 3.16735 -1.18029 -18.98474 -4.77467 -7.65923 26.36004 119.64069 14.80882 5.71185 -19.92414 7.16999 -3.15023 30.28671 -104.98149 16.16073 -1.95934 30.78495 -3.98073 -12.55178 -20.4741 -6.49516 -3.33686 -3.85036 35.18875 5.3046 7.62377 -24.59666 -6.66109 1.90546 3.17092
0.00774 0.00016 -0.00484 -173.54797 -30.46343 1.91083 43.9307 -1.02512 -8.24665 -12.24596 3.15658 -1.18117 -18.964 -4.94041 -6.98522 26.34808 116.0156 13.79396 5.12166 -19.92307 7.07237 -2.79595 30.31127 -108.70747 17.38703 -2.52987 30.87838 -3.96329 -12.43556 -20.47935 -6.50018 -3.3414 -3.85319 35.27382 5.30498 7.62595 -24.6011 -6.66741 1.90651 3.17146
0.0083 0.00018 -0.00506 -173.5526 -30.50673 1.92139 43.91171 -1.00749 -8.26537 -12.1225 3.14071 -1.18205 -18.95104 -5.20789 -5.89457 26.35032 109.97367 12.10167 4.1379 -19.93159 6.95046 -2.34336 30.35148 -113.41033 18.92965 -3.24845 30.97367 -3.94209 -12.29549 -20.48435 -6.50679 -3.34792 -3.85734 35.36076 5.30681 7.63384 -24.60454 -6.67418 1.9051 3.17078
0.00888 0.00021 -0.00529 -173.55803 -30.54895 1.93216 43.89052 -0.98987 -8.28181 -12.00167 3.12656 -1.18293 -18.93542 -5.421 -5.02733 26.34878 105.23338 10.77402 3.3661 -19.93673 6.84918 -1.96795 30.38802 -117.41202 20.24299 -3.8604 31.06773 -3.923 -12.16852 -20.48973 -6.51265 -3.3535 -3.86087 35.44676 5.3081 7.63858 -24.60849 -6.68072 1.90478 3.17064
0.00946 0.00022 -0.00552 -173.57009 -30.59218 1.94215 43.87136 -0.97182 -8.29667 -11.88556 3.11499 -1.18378 -18.91553 -5.66646 -4.0238 26.33525 99.67946 9.2189 2.46181 -19.93732 6.70604 -1.45199 30.40869 -122.516 21.9227 -4.64106 31.16378 -3.90243 -12.03182 -20.49394 -6.51864 -3.35923 -3.86448 35.53341 5.30878 7.6463 -24.61222 -6.68739 1.9046 3.17059
0.01002 0.00025 -0.00575 -173.56664 -30.63374 1.95375 43.84876 -0.95472 -8.31607 -11.75759 3.09684 -1.18472 -18.90716 -5.86965 -3.20173 26.3509 95.22448 7.97083 1.73649 -19.95004 6.64446 -1.20428 30.46727 -125.57045 22.91927 -5.10769 31.256 -3.88399 -11.91072 -20.50057 -6.52469 -3.36507 -3.8682 35.61918 5.3112 7.64867 -24.61616 -6.6939 1.90351 3.17005
0.01057 0.00028 -0.00601 -173.52614 -30.66935 1.96983 43.81666 -0.94 -8.34856 -11.60271 3.06141 -1.1859 -18.92168 -5.92891 -2.99003 26.43645 94.45371 7.7508 1.61077 -19.99123 6.81863 -1.75148 30.61858 -122.46783 21.86608 -4.63074 31.33693 -3.87195 -11.8267 -20.51357 -6.53097 -3.37127 -3.87227 35.70019 5.31712 7.63808 -24.62116 -6.69984 1.90075 3.16851
0.0111 0.00033 -0.00629 -173.46933 -30.70317 1.98755 43.78089 -0.92629 -8.38501 -11.43596 3.01958 -1.18717 -18.94878 -5.9428 -2.97309 26.55196 94.85633 7.85904 1.67616 -20.04475 7.07505 -2.56725 30.80871 -117.31042 20.12838 -3.83906 31.41376 -3.86213 -11.761 -20.5291 -6.53718 -3.37744 -3.87637 35.78033 5.32495 7.62136 -24.62636 -6.70562 1.8971 3.1665
0.01163 0.00036 -0.00657 -173.41708 -30.73855 2.0045 43.74607 -0.91219 -8.41847 -11.27191 2.9809 -1.1884 -18.97476 -5.97924 -2.86107 26.65886 94.67723 7.80577 1.64713 -20.09452 7.29111 -3.24122 30.98697 -113.25889 18.75893 -3.21716 31.49288 -3.85163 -11.69492 -20.54374 -6.5431 -3.38322 -3.88019 35.8623 5.33248 7.60516 -24.6313 -6.7115 1.89368 3.16464
0.01218 0.00041 -0.0068 -173.37685 -30.77154 2.0215 43.71402 -0.89768 -8.45742 -11.11755 2.94103 -1.18964 -18.98178 -6.01105 -2.76197 26.7463 94.61706 7.78052 1.63629 -20.13713 7.51909 -3.99517 31.14298 -108.51996 17.16052 -2.48837 31.57111 -3.83997 -11.59566 -20.55725 -6.55039 -3.39066 -3.88507 35.93915 5.3375 7.59828 -24.63691 -6.71726 1.89092 3.163
0.01269 0.00044 -0.00714 -173.3076 -30.8082 2.03884 43.67579 -0.88443 -8.48545 -10.94203 2.90216 -1.19088 -19.03093 -6.04037 -2.6881 26.87975 94.6218 7.78439 1.63825 -20.19702 7.74183 -4.64741 31.35237 -104.70662 15.87083 -1.90458 31.64912 -3.83085 -11.56869 -20.57376 -6.55486 -3.39475 -3.88783 36.02534 5.34839 7.57102 -24.64121 -6.72324 1.88658 3.16079
0.01316 0.00046 -0.00779 -173.16365 -30.86217 2.05612 43.6172 -0.8729 -8.48535 -10.69722 2.86796 -1.19208 -19.1953 -6.0741 -2.6333 27.14503 94.50646 7.78496 1.62899 -20.30582 7.93251 -4.95577 31.71647 -103.99217 15.61212 -1.80566 31.73619 -3.83188 -11.74854 -20.59745 -6.55088 -3.38834 -3.88406 36.14628 5.37336 7.4843 -24.6415 -6.72991 1.87832 3.15734
0.0136 0.00047 -0.00856 -172.99086 -30.91836 2.07377 43.55339 -0.86292 -8.47352 -10.43477 2.83495 -1.19327 -19.40111 -6.10642 -2.59945 27.45315 94.43033 7.8076 1.62799 -20.43107 8.11484 -5.15259 32.12961 -104.26813 15.68442 -1.86145 31.82122 -3.83456 -11.99776 -20.62415 -6.54421 -3.37883 -3.87829 36.27463 5.40456 7.37835 -24.64051 -6.73679 1.86842 3.15327
0.01402 0.00048 -0.00928 -172.83031 -30.96942 2.09163 43.49458 -0.85321 -8.46507 -10.18865 2.80117 -1.19447 -19.5868 -6.13865 -2.56043 27.73374 94.35626 7.82563 1.625 -20.54559 8.29929 -5.39913 32.50938 -104.0585 15.59584 -1.84069 31.90191 -3.83433 -12.20855 -20.64981 -6.53914 -3.37148 -3.87384 36.39432 5.43387 7.28399 -24.64037 -6.74354 1.85915 3.14935
0.01454 0.00051 -0.00995 -172.6727 -31.03889 2.10801 43.42413 -0.8393 -8.46502 -9.90442 2.76808 -1.19567 -19.77891 -6.17214 -2.51097 28.0498 94.23743 7.83142 1.6208 -20.673 8.49317 -5.65875 32.93785 -103.9254 15.52614 -1.83517 32.00606 -3.84399 -12.45193 -20.67423 -6.53233 -3.36071 -3.86755 36.53785 5.45889 7.17651 -24.63919 -6.75044 1.85045 3.146
0.01486 0.00049 -0.01078 -172.50254 -31.06923 2.12749 43.37726 -0.83462 -8.44459 -9.69878 2.73396 -1.19688 -19.96667 -6.20363 -2.48399 28.30127 94.20646 7.86424 1.61887 -20.77892 8.665 -5.86157 33.27536 -103.89754 15.50654 -1.83902 32.05919 -3.83253 -12.64014 -20.70188 -6.52872 -3.35663 -3.86475 36.63156 5.49479 7.09294 -24.63978 -6.75705 1.84005 3.14129
0.01466 0.00033 -0.01202 -172.30301 -31.00239 2.1556 43.39206 -0.85398 -8.37138 -9.68658 2.69668 -1.19811 -20.13729 -6.22687 -2.52853 28.36803 94.40302 7.96117 1.61883 -20.8087 8.77251 -5.93068 33.35589 -103.9078 15.53201 -1.83056 31.98679 -3.77036 -12.69162 -20.738 -6.53247 -3.36896 -3.87069 36.6027 5.55513 7.07025 -24.64648 -6.76305 1.82676 3.13342
0.01423 0.00012 -0.01344 -172.09224 -30.89409 2.18673 43.43147 -0.88271 -8.27803 -9.75918 2.65843 -1.19936 -20.30087 -6.24902 -2.59112 28.36751 94.68143 8.08353 1.62027 -20.81936 8.85906 -5.94641 33.34238 -104.00542 15.60311 -1.8284 31.86048 -3.68564 -12.68074 -20.7772 -6.53981 -3.38851 -3.88039 36.52053 5.62692 7.07366 -24.6549 -6.76869 1.81162 3.12415
